HIERARCHY
ROOT hip
{
  OFFSET 0 0 0
  CHANNELS 6 Xposition Yposition Zposition Zrotation Yrotation Xrotation
  JOINT abdomen
  {
    OFFSET 0 20.6881 -0.73152
    CHANNELS 3 Zrotation Xrotation Yrotation
    JOINT chest
    {
      OFFSET 0 11.7043 -0.48768
      CHANNELS 3 Zrotation Xrotation Yrotation
      JOINT neck
      {
        OFFSET 0 22.1894 -2.19456
        CHANNELS 3 Zrotation Xrotation Yrotation
        JOINT head
        {
          OFFSET -0.24384 7.07133 1.2192
          CHANNELS 3 Zrotation Xrotation Yrotation
          JOINT leftEye
          {
            OFFSET 4.14528 8.04674 8.04672
            CHANNELS 3 Zrotation Xrotation Yrotation
            End Site
            {
              OFFSET 1 0 0
            }
          }
          JOINT rightEye
          {
            OFFSET -3.6576 8.04674 8.04672
            CHANNELS 3 Zrotation Xrotation Yrotation
            End Site
            {
              OFFSET 1 0 0
            }
          }
        }
      }
      JOINT rCollar
      {
        OFFSET -2.68224 19.2634 -4.8768
        CHANNELS 3 Zrotation Xrotation Yrotation
        JOINT rShldr
        {
          OFFSET -8.77824 -1.95073 1.46304
          CHANNELS 3 Zrotation Xrotation Yrotation
          JOINT rForeArm
          {
            OFFSET -28.1742 -1.7115 0.48768
            CHANNELS 3 Zrotation Xrotation Yrotation
            JOINT rHand
            {
              OFFSET -22.5879 0.773209 7.07136
              CHANNELS 3 Zrotation Xrotation Yrotation
              JOINT rThumb1
              {
                OFFSET -1.2192 -0.487915 3.41376
                CHANNELS 3 Zrotation Xrotation Yrotation
                JOINT rThumb2
                {
                  OFFSET -3.37035 -0.52449 3.41376
                  CHANNELS 3 Zrotation Xrotation Yrotation
                  End Site
                  {
                    OFFSET -1.78271 -1.18214 1.43049
                  }
                }
              }
              JOINT rIndex1
              {
                OFFSET -7.75947 0.938293 5.60832
                CHANNELS 3 Zrotation Xrotation Yrotation
                JOINT rIndex2
                {
                  OFFSET -2.54057 -0.884171 1.56538
                  CHANNELS 3 Zrotation Xrotation Yrotation
                  End Site
                  {
                    OFFSET -1.62519 -0.234802 1.16502
                  }
                }
              }
              JOINT rMid1
              {
                OFFSET -8.24714 1.18213 3.41376
                CHANNELS 3 Zrotation Xrotation Yrotation
                JOINT rMid2
                {
                  OFFSET -3.10165 -0.590103 1.0647
                  CHANNELS 3 Zrotation Xrotation Yrotation
                  End Site
                  {
                    OFFSET -2.48547 -0.328903 0.83742
                  }
                }
              }
              JOINT rRing1
              {
                OFFSET -8.82822 0.546677 1.51678
                CHANNELS 3 Zrotation Xrotation Yrotation
                JOINT rRing2
                {
                  OFFSET -2.60934 -0.819778 -0.0198488
                  CHANNELS 3 Zrotation Xrotation Yrotation
                  End Site
                  {
                    OFFSET -2.33842 -0.294052 0.168128
                  }
                }
              }
              JOINT rPinky1
              {
                OFFSET -8.27202 -0.0477905 -0.4584
                CHANNELS 3 Zrotation Xrotation Yrotation
                JOINT rPinky2
                {
                  OFFSET -1.82734 -0.647385 -0.700984
                  CHANNELS 3 Zrotation Xrotation Yrotation
                  End Site
                  {
                    OFFSET -1.69225 -0.51767 -0.607171
                  }
                }
              }
            }
          }
        }
      }
      JOINT lCollar
      {
        OFFSET 2.68224 19.2634 -4.8768
        CHANNELS 3 Zrotation Xrotation Yrotation
        JOINT lShldr
        {
          OFFSET 8.77824 -1.95073 1.46304
          CHANNELS 3 Zrotation Xrotation Yrotation
          JOINT lForeArm
          {
            OFFSET 28.1742 -1.7115 0.48768
            CHANNELS 3 Zrotation Xrotation Yrotation
            JOINT lHand
            {
              OFFSET 22.5879 0.773209 7.07136
              CHANNELS 3 Zrotation Xrotation Yrotation
              JOINT lThumb1
              {
                OFFSET 1.2192 -0.487915 3.41376
                CHANNELS 3 Zrotation Xrotation Yrotation
                JOINT lThumb2
                {
                  OFFSET 3.37035 -0.52449 3.41376
                  CHANNELS 3 Zrotation Xrotation Yrotation
                  End Site
                  {
                    OFFSET 1.78271 -1.18214 1.43049
                  }
                }
              }
              JOINT lIndex1
              {
                OFFSET 7.75947 0.938293 5.60832
                CHANNELS 3 Zrotation Xrotation Yrotation
                JOINT lIndex2
                {
                  OFFSET 2.54057 -0.884171 1.56538
                  CHANNELS 3 Zrotation Xrotation Yrotation
                  End Site
                  {
                    OFFSET 1.62519 -0.234802 1.16502
                  }
                }
              }
              JOINT lMid1
              {
                OFFSET 8.24714 1.18213 3.41376
                CHANNELS 3 Zrotation Xrotation Yrotation
                JOINT lMid2
                {
                  OFFSET 3.10165 -0.590103 1.0647
                  CHANNELS 3 Zrotation Xrotation Yrotation
                  End Site
                  {
                    OFFSET 2.48547 -0.328903 0.83742
                  }
                }
              }
              JOINT lRing1
              {
                OFFSET 8.82822 0.546677 1.51678
                CHANNELS 3 Zrotation Xrotation Yrotation
                JOINT lRing2
                {
                  OFFSET 2.60934 -0.819778 -0.0198488
                  CHANNELS 3 Zrotation Xrotation Yrotation
                  End Site
                  {
                    OFFSET 2.33842 -0.294052 0.168128
                  }
                }
              }
              JOINT lPinky1
              {
                OFFSET 8.27202 -0.0477905 -0.4584
                CHANNELS 3 Zrotation Xrotation Yrotation
                JOINT lPinky2
                {
                  OFFSET 1.82734 -0.647385 -0.700984
                  CHANNELS 3 Zrotation Xrotation Yrotation
                  End Site
                  {
                    OFFSET 1.69225 -0.51767 -0.607171
                  }
                }
              }
            }
          }
        }
      }
    }
  }
  JOINT rButtock
  {
    OFFSET -8.77824 4.35084 1.2192
    CHANNELS 3 Zrotation Xrotation Yrotation
    JOINT rThigh
    {
      OFFSET 0 -1.70687 -2.19456
      CHANNELS 3 Zrotation Xrotation Yrotation
      JOINT rShin
      {
        OFFSET 0 -36.8199 0.73152
        CHANNELS 3 Zrotation Xrotation Yrotation
        JOINT rFoot
        {
          OFFSET 0.73152 -45.1104 -5.12064
          CHANNELS 3 Zrotation Xrotation Yrotation
          End Site
          {
            OFFSET -1.1221 -3.69964 12.103
          }
        }
      }
    }
  }
  JOINT lButtock
  {
    OFFSET 8.77824 4.35084 1.2192
    CHANNELS 3 Zrotation Xrotation Yrotation
    JOINT lThigh
    {
      OFFSET 0 -1.70687 -2.19456
      CHANNELS 3 Zrotation Xrotation Yrotation
      JOINT lShin
      {
        OFFSET 0 -36.8199 0.73152
        CHANNELS 3 Zrotation Xrotation Yrotation
        JOINT lFoot
        {
          OFFSET -0.73152 -45.1104 -5.12064
          CHANNELS 3 Zrotation Xrotation Yrotation
          End Site
          {
            OFFSET 1.1221 -3.69964 12.103
          }
        }
      }
    }
  }
}
MOTION
Frames:	6
Frame Time:	0.00833333
-166.272 85.4571 14.5549 0.0 0.0 0.0 1.92989 -0.00172182 0.0523843 0.532097 0.00507103 0.0921252 -3.86984e-14 -1.59028e-15 -1.73936e-16 -1.15438e-13 3.18055e-15 -5.71506e-16 -0.0 0.0 0.0 -0.0 0.0 0.0 -1.91842e-14 8.77448e-17 4.96962e-17 -4.0173e-13 2.13694e-15 -2.5842e-15 -6.96556e-12 2.14926e-12 1.27222e-14 -7.97007e-11 -1.73947e-12 -5.43875e-13 -1.8801e-10 8.84372e-13 -1.1291e-12 -3.24682e-10 1.52985e-12 -1.93696e-12 -1.88001e-10 8.87375e-13 -1.1291e-12 7.73091 5.47488 0.417314 -1.8801e-10 8.85188e-13 -1.12274e-12 2.90554 0.965183 0.102902 -1.88002e-10 8.85089e-13 -1.12353e-12 10.2786 0.731801 0.0259123 -1.88013e-10 8.84592e-13 -1.11956e-12 2.22167 -0.733487 -0.20892 -1.90832e-14 9.08508e-17 -1.49089e-16 -4.07961e-13 2.21769e-15 -4.57205e-15 -6.96427e-12 -2.01806e-12 1.27222e-14 -7.9723e-11 2.44257e-12 -5.37514e-13 -1.88048e-10 9.14637e-13 -1.11319e-12 -3.24746e-10 1.57437e-12 -1.91708e-12 -1.88055e-10 9.17988e-13 -1.10683e-12 -7.73091 5.47488 -0.417314 -1.88048e-10 9.14807e-13 -1.11637e-12 -2.90554 0.965183 -0.102902 -1.88059e-10 9.15403e-13 -1.11478e-12 -10.2786 0.731801 -0.0259123 -1.88047e-10 9.13614e-13 -1.11956e-12 -2.22167 -0.733487 0.20892 -2.03217e-16 0.0 -3.88251e-19 1.95777 -7.26116 -0.191907 0.00413087 7.58528 0.107151 -0.519579 -0.330664 0.0521391 2.03217e-16 0.0 3.88251e-19 0.976673 -1.92613 0.000869919 0.0089871 -2.0786 0.0740623 0.487878 3.99809 -0.136738
-159.373 85.6398 5.50448 50.9128 85.4156 50.2439 0.486446 1.1106 0.679802 1.02886 -0.546458 0.29994 1.45976 -1.56341 0.92162 -1.49085 1.3993 1.44012 -0.0 0.0 0.0 -0.0 0.0 0.0 -6.49763e-15 1.68902e-12 -1.89296e-14 21.9114 10.3244 -0.0561611 -4.6 -2.1717 7.09412 0.00503514 1.57942 0.221672 -7.38943e-11 2.23307e-11 -2.53625e-10 -1.29246e-10 3.85377e-11 -4.3901e-10 -7.38865e-11 2.2333e-11 -2.53624e-10 7.73091 5.47488 0.417314 -7.38934e-11 2.23304e-11 -2.53623e-10 2.90554 0.965183 0.102902 -7.38875e-11 2.23293e-11 -2.53621e-10 10.2786 0.731801 0.0259123 -7.38996e-11 2.23291e-11 -2.53618e-10 2.22167 -0.733487 -0.20892 -6.41837e-15 1.68903e-12 -1.91148e-14 -22.0287 10.9758 -1.05033 3.49992 -1.46984 -5.59034 -0.0318659 3.96144 -0.551948 -4.19025e-10 8.64398e-11 2.37462e-11 -7.23566e-10 1.49419e-10 4.44946e-11 -4.19033e-10 8.64434e-11 2.37563e-11 -7.73091 5.47488 -0.417314 -4.19025e-10 8.64406e-11 2.37429e-11 -2.90554 0.965183 -0.102902 -4.19034e-10 8.64412e-11 2.37438e-11 -10.2786 0.731801 -0.0259123 -4.19023e-10 8.64405e-11 2.3737e-11 -2.22167 -0.733487 0.20892 -2.03217e-16 0.0 -3.88251e-19 -1.53679 -4.36528 -1.01906 0.00516408 7.82546 0.110988 -0.39651 -3.93529 0.784839 2.03217e-16 0.0 3.88251e-19 1.92651 1.61471 -1.23919 0.00825401 -2.60228 0.0792372 0.488252 4.09341 -0.477747
-159.345 85.6666 5.50463 51.1862 85.3952 50.3981 -1.07268 2.28734 1.34276 1.56271 -1.13352 0.519375 3.05767 -3.21079 1.89862 -3.14482 2.8749 2.96682 -0.0 0.0 0.0 -0.0 0.0 0.0 8.03613e-15 3.7037e-12 -4.14093e-14 45.0962 21.25 -0.123782 -8.88821 -4.36051 14.6343 -0.00294664 3.23406 0.454473 6.58612e-12 4.05184e-11 -5.06394e-10 8.10303e-12 6.98941e-11 -8.76293e-10 6.59313e-12 4.05199e-11 -5.06391e-10 7.73091 5.47488 0.417314 6.5882e-12 4.05169e-11 -5.06397e-10 2.90554 0.965183 0.102902 6.59119e-12 4.05148e-11 -5.06391e-10 10.2786 0.731801 0.0259123 6.57866e-12 4.05148e-11 -5.0639e-10 2.22167 -0.733487 -0.20892 8.097e-15 3.7037e-12 -4.15802e-14 -44.8486 22.5664 -2.29451 6.89168 -2.97835 -11.5153 0.0182017 8.14756 -1.14421 -6.26754e-10 1.56686e-10 7.62e-12 -1.08271e-09 2.70903e-10 1.98431e-11 -6.26763e-10 1.5669e-10 7.6343e-12 -7.73091 5.47488 -0.417314 -6.26754e-10 1.56688e-10 7.61644e-12 -2.90554 0.965183 -0.102902 -6.26761e-10 1.56688e-10 7.61678e-12 -10.2786 0.731801 -0.0259123 -6.26751e-10 1.56689e-10 7.60767e-12 -2.22167 -0.733487 0.20892 -2.03217e-16 0.0 -3.88251e-19 -5.14676 -1.30304 -1.89452 0.00622604 8.07781 0.115134 -0.165157 -7.74069 1.57244 2.03217e-16 0.0 3.88251e-19 3.08831 5.35627 -2.57685 0.00739784 -3.16243 0.0862426 0.495542 4.36895 -1.04912
-159.343 85.6709 5.51821 50.732 85.4265 49.9347 -2.47362 3.33359 1.93753 2.03439 -1.64941 0.715826 4.53054 -4.68537 2.7731 -4.68384 4.18727 4.33065 -0.0 0.0 0.0 -0.0 0.0 0.0 1.88755e-14 5.06689e-12 -5.68881e-14 65.8034 30.9732 -0.193321 -12.2202 -6.11645 21.3947 -0.0216646 4.73798 0.667044 1.54337e-10 6.52232e-11 -7.58618e-10 2.61627e-10 1.12553e-10 -1.31316e-09 1.54343e-10 6.52241e-11 -7.58614e-10 7.73091 5.47488 0.417314 1.5434e-10 6.52209e-11 -7.58625e-10 2.90554 0.965183 0.102902 1.54341e-10 6.52178e-11 -7.58617e-10 10.2786 0.731801 0.0259123 1.54328e-10 6.52181e-11 -7.58616e-10 2.22167 -0.733487 -0.20892 1.89112e-14 5.06689e-12 -5.70462e-14 -64.6841 32.8787 -3.68408 9.65095 -4.24189 -16.8129 0.137604 11.8799 -1.68805 -8.80979e-10 2.5749e-10 7.3465e-11 -1.52121e-09 4.45109e-10 1.37318e-10 -8.80989e-10 2.57494e-10 7.34826e-11 -7.73091 5.47488 -0.417314 -8.80979e-10 2.57492e-10 7.34613e-11 -2.90554 0.965183 -0.102902 -8.80984e-10 2.57493e-10 7.34611e-11 -10.2786 0.731801 -0.0259123 -8.80975e-10 2.57494e-10 7.34501e-11 -2.22167 -0.733487 0.20892 -2.03217e-16 0.0 -3.88251e-19 -8.27538 1.42296 -2.66839 0.00713293 8.30581 0.118682 0.130756 -11.137 2.28779 2.03217e-16 0.0 3.88251e-19 4.2898 8.67906 -3.76095 0.00707246 -3.64965 0.0896209 0.492416 4.2836 -1.16001
-159.35 85.667 5.52289 50.5854 85.4492 49.821 -3.42748 4.05518 2.35912 2.3421 -1.98745 0.854571 5.58445 -5.73256 3.38354 -5.78614 5.10171 5.27752 -0.0 0.0 0.0 -0.0 0.0 0.0 2.04786e-14 4.80139e-12 -5.48646e-14 80.2608 37.6907 -0.242423 -14.2693 -7.17383 26.0975 -0.04238 5.86535 0.827242 4.70265e-10 1.06221e-10 -1.00948e-09 8.0559e-10 1.8347e-10 -1.74897e-09 4.7027e-10 1.06222e-10 -1.00948e-09 7.73091 5.47488 0.417314 4.70268e-10 1.06219e-10 -1.00949e-09 2.90554 0.965183 0.102902 4.70268e-10 1.06215e-10 -1.00948e-09 10.2786 0.731801 0.0259123 4.70255e-10 1.06216e-10 -1.00948e-09 2.22167 -0.733487 -0.20892 2.04724e-14 4.80139e-12 -5.50137e-14 -78.0943 40.0396 -4.94681 11.4249 -5.05346 -20.5023 0.264335 14.4819 -2.08024 -1.25144e-09 4.34686e-10 3.44238e-10 -2.1581e-09 7.51123e-10 6.10108e-10 -1.25145e-09 4.34691e-10 3.44257e-10 -7.73091 5.47488 -0.417314 -1.25144e-09 4.34689e-10 3.44235e-10 -2.90554 0.965183 -0.102902 -1.25145e-09 4.34689e-10 3.44234e-10 -10.2786 0.731801 -0.0259123 -1.25144e-09 4.34692e-10 3.44222e-10 -2.22167 -0.733487 0.20892 -2.03217e-16 0.0 -3.88251e-19 -10.3794 3.31277 -3.18544 0.00772347 8.47297 0.120724 0.386885 -13.5177 2.78722 2.03217e-16 0.0 3.88251e-19 5.25134 10.9732 -4.51612 0.00774063 -3.95452 0.083897 0.474545 3.29592 -0.120597
-159.35 85.667 5.51415 50.9541 85.4338 50.1924 -3.72548 4.31945 2.53872 2.41093 -2.0682 0.913059 6.00969 -6.1921 3.61865 -6.21834 5.46944 5.63098 -0.0 0.0 0.0 -0.0 0.0 0.0 4.90567e-15 1.41958e-12 -1.95182e-14 85.9358 40.1909 -0.235201 -14.9728 -7.51034 27.8457 -0.0550701 6.48596 0.915729 1.04499e-09 1.69723e-10 -1.23858e-09 1.79648e-09 2.93431e-10 -2.14916e-09 1.045e-09 1.69725e-10 -1.23858e-09 7.73091 5.47488 0.417314 1.04499e-09 1.69722e-10 -1.23859e-09 2.90554 0.965183 0.102902 1.04499e-09 1.69719e-10 -1.23858e-09 10.2786 0.731801 0.0259123 1.04498e-09 1.69721e-10 -1.23858e-09 2.22167 -0.733487 -0.20892 4.81725e-15 1.41958e-12 -1.96638e-14 -83.1668 42.835 -5.58024 12.0718 -5.34255 -21.9152 0.324185 15.5035 -2.23785 -1.77045e-09 7.26224e-10 9.62256e-10 -3.04744e-09 1.25431e-09 1.68436e-09 -1.77046e-09 7.26229e-10 9.62273e-10 -7.73091 5.47488 -0.417314 -1.77045e-09 7.26227e-10 9.62254e-10 -2.90554 0.965183 -0.102902 -1.77045e-09 7.26228e-10 9.62252e-10 -10.2786 0.731801 -0.0259123 -1.77044e-09 7.26229e-10 9.62241e-10 -2.22167 -0.733487 0.20892 -2.03217e-16 0.0 -3.88251e-19 -11.1211 4.03057 -3.32656 0.00792112 8.56138 0.120566 0.494839 -14.4865 2.95683 2.03217e-16 0.0 3.88251e-19 5.73766 11.8312 -4.58658 0.0098892 -3.98602 0.0628609 0.612492 0.759159 2.84411
